<?xml version="1.0" standalone="no"?>
<!DOCTYPE svg PUBLIC "-//W3C//DTD SVG 1.1//EN" "http://www.w3.org/Graphics/SVG/1.1/DTD/svg11.dtd">
<svg version="1.1" xmlns="http://www.w3.org/2000/svg" viewBox="0 0 456.50376472473135 359.8486026403259" width="456.50376472473135" height="359.8486026403259"><!-- svg-source:excalidraw --><metadata></metadata><defs><style class="style-fonts">
      </style></defs><rect x="0" y="0" width="456.50376472473135" height="359.8486026403259" fill="#ffffff"></rect><g stroke-linecap="round"><g transform="translate(84.31115015149112 10.460065177613842) rotate(0 2.79998779296875 168.00001525878906)"><path d="M-0.83 0.38 C0.05 56.16, 3.28 279.9, 4.53 335.67 M0.93 -0.46 C2.24 56.01, 5.76 281, 6.67 337.03" stroke="#1e1e1e" stroke-width="2" fill="none"></path></g></g><mask></mask><g stroke-linecap="round"><g transform="translate(10.71111353039737 348.06007128112947) rotate(0 217.60003662109375 -1.600006103515625)"><path d="M-0.71 1.04 C36.69 0.92, 151.52 0.57, 224.27 0.05 C297.02 -0.47, 400.56 -1.64, 435.79 -2.07 M1.12 0.54 C38.32 0.56, 150.67 2.34, 223.04 1.61 C295.41 0.89, 399.82 -2.77, 435.34 -3.82" stroke="#1e1e1e" stroke-width="2" fill="none"></path></g></g><mask></mask><g stroke-linecap="round"><g transform="translate(89.91112573742862 305.66004686706697) rotate(0 -14 20.800018310546875)"><path d="M0.84 -0.69 C-3.65 6.19, -22.86 34.19, -27.48 41.27 M-0.18 1.56 C-4.73 8.61, -23.67 35.7, -28.15 42.63" stroke="#1e1e1e" stroke-width="2" fill="none"></path></g></g><mask></mask><g stroke-linecap="round"><g transform="translate(90.71111353039737 308.8600590740982) rotate(0 14 20)"><path d="M-0.07 0.16 C4.6 6.75, 24.02 32.4, 28.7 38.87 M-1.56 -0.8 C2.94 5.95, 23.32 33.05, 28.11 39.82" stroke="#1e1e1e" stroke-width="2" fill="none"></path></g></g><mask></mask><g stroke-linecap="round"><g transform="translate(71.51116235852237 24.060056022340405) rotate(0 152.79998779296875 -1.5999984741210938)"><path d="M0.78 0.19 C51.79 -0.15, 254.81 -1.52, 305.73 -2.09 M-0.27 -0.75 C50.62 -1.4, 253.82 -3.43, 304.85 -3.63" stroke="#1e1e1e" stroke-width="2" fill="none"></path></g></g><mask></mask><g stroke-linecap="round"><g transform="translate(86.71111353039737 80.06007128112947) rotate(0 23.600006103515625 -28.800003051757812)"><path d="M-1.06 1.18 C6.76 -8.11, 38.44 -47.05, 46.47 -56.72 M0.59 0.75 C8.83 -8.78, 41.18 -48.46, 48.81 -58.38" stroke="#1e1e1e" stroke-width="2" fill="none"></path></g></g><mask></mask><g stroke-linecap="round"><g transform="translate(281.11113794445987 23.260068229371655) rotate(0 0.79998779296875 31.20000457763672)"><path d="M0.29 0.57 C0.52 11.2, 2.16 52.99, 2.39 63.35 M-1.01 -0.18 C-0.97 10.17, 1.52 51.6, 1.85 61.72" stroke="#1e1e1e" stroke-width="2" fill="none"></path></g></g><mask></mask></svg>