<?xml version="1.0" standalone="no"?>
<!DOCTYPE svg PUBLIC "-//W3C//DTD SVG 1.1//EN" "http://www.w3.org/Graphics/SVG/1.1/DTD/svg11.dtd">
<svg version="1.1" xmlns="http://www.w3.org/2000/svg" viewBox="0 0 456.50376472473135 359.8486026403259" width="456.50376472473135" height="359.8486026403259"><!-- svg-source:excalidraw --><metadata></metadata><defs><style class="style-fonts">
      </style></defs><rect x="0" y="0" width="456.50376472473135" height="359.8486026403259" fill="#ffffff"></rect><g stroke-linecap="round"><g transform="translate(84.31115015149112 10.460065177613842) rotate(0 2.79998779296875 168.00001525878906)"><path d="M-0.83 0.38 C0.05 56.16, 3.28 279.9, 4.53 335.67 M0.93 -0.46 C2.24 56.01, 5.76 281, 6.67 337.03" stroke="#1e1e1e" stroke-width="2" fill="none"></path></g></g><mask></mask><g stroke-linecap="round"><g transform="translate(10.71111353039737 348.06007128112947) rotate(0 217.60003662109375 -1.600006103515625)"><path d="M-0.71 1.04 C36.69 0.92, 151.52 0.57, 224.27 0.05 C297.02 -0.47, 400.56 -1.64, 435.79 -2.07 M1.12 0.54 C38.32 0.56, 150.67 2.34, 223.04 1.61 C295.41 0.89, 399.82 -2.77, 435.34 -3.82" stroke="#1e1e1e" stroke-width="2" fill="none"></path></g></g><mask></mask><g stroke-linecap="round"><g transform="translate(89.91112573742862 305.66004686706697) rotate(0 -14 20.800018310546875)"><path d="M0.84 -0.69 C-3.65 6.19, -22.86 34.19, -27.48 41.27 M-0.18 1.56 C-4.73 8.61, -23.67 35.7, -28.15 42.63" stroke="#1e1e1e" stroke-width="2" fill="none"></path></g></g><mask></mask><g stroke-linecap="round"><g transform="translate(90.71111353039737 308.8600590740982) rotate(0 14 20)"><path d="M-0.07 0.16 C4.6 6.75, 24.02 32.4, 28.7 38.87 M-1.56 -0.8 C2.94 5.95, 23.32 33.05, 28.11 39.82" stroke="#1e1e1e" stroke-width="2" fill="none"></path></g></g><mask></mask><g stroke-linecap="round"><g transform="translate(71.51116235852237 24.060056022340405) rotate(0 152.79998779296875 -1.5999984741210938)"><path d="M0.78 0.19 C51.79 -0.15, 254.81 -1.52, 305.73 -2.09 M-0.27 -0.75 C50.62 -1.4, 253.82 -3.43, 304.85 -3.63" stroke="#1e1e1e" stroke-width="2" fill="none"></path></g></g><mask></mask><g stroke-linecap="round"><g transform="translate(86.71111353039737 80.06007128112947) rotate(0 23.600006103515625 -28.800003051757812)"><path d="M-1.06 1.18 C6.76 -8.11, 38.44 -47.05, 46.47 -56.72 M0.59 0.75 C8.83 -8.78, 41.18 -48.46, 48.81 -58.38" stroke="#1e1e1e" stroke-width="2" fill="none"></path></g></g><mask></mask><g stroke-linecap="round"><g transform="translate(281.11113794445987 23.260068229371655) rotate(0 0.79998779296875 31.20000457763672)"><path d="M0.29 0.57 C0.52 11.2, 2.16 52.99, 2.39 63.35 M-1.01 -0.18 C-0.97 10.17, 1.52 51.6, 1.85 61.72" stroke="#1e1e1e" stroke-width="2" fill="none"></path></g></g><mask></mask><g stroke-linecap="round" transform="translate(249.11113794445987 87.26005297058259) rotate(0 37.600006103515625 35.600006103515625)"><path d="M25.97 1.34 C32.41 -1.36, 41.84 -0.67, 48.69 1.48 C55.54 3.62, 62.69 8.41, 67.06 14.21 C71.42 20.02, 74.87 29.27, 74.89 36.32 C74.9 43.37, 71.37 50.89, 67.14 56.51 C62.91 62.12, 56.39 67.91, 49.51 70.01 C42.62 72.1, 32.77 71.34, 25.85 69.08 C18.94 66.81, 12.17 62.15, 8 56.43 C3.84 50.71, 0.83 41.78, 0.84 34.76 C0.85 27.73, 3.32 20.03, 8.06 14.31 C12.8 8.59, 25.03 2.81, 29.26 0.43 C33.49 -1.95, 33.33 -0.76, 33.43 0.02 M21.76 4.62 C27.9 1.37, 37.61 -1.41, 44.76 -0.42 C51.91 0.57, 59.74 5.27, 64.65 10.56 C69.56 15.85, 73.29 24.35, 74.24 31.33 C75.19 38.3, 73.64 46.34, 70.35 52.42 C67.07 58.5, 60.98 64.92, 54.53 67.82 C48.08 70.73, 39.12 70.97, 31.66 69.85 C24.19 68.73, 14.71 65.97, 9.73 61.11 C4.75 56.25, 2.71 47.81, 1.77 40.67 C0.82 33.53, 0.86 24.52, 4.08 18.27 C7.29 12.01, 18.18 5.34, 21.05 3.16 C23.92 0.98, 20.95 4.8, 21.32 5.19" stroke="#1e1e1e" stroke-width="2" fill="none"></path></g><g stroke-linecap="round"><g transform="translate(289.9111257374286 159.2600529705826) rotate(0 1.600006103515625 56)"><path d="M0.72 -0.87 C1.31 17.79, 2.71 92.24, 3.08 110.89 M-0.36 1.29 C0.09 20.15, 1.66 93.42, 2.08 111.85" stroke="#1e1e1e" stroke-width="2" fill="none"></path></g></g><mask></mask><g stroke-linecap="round"><g transform="translate(289.9111257374286 160.06007128112947) rotate(0 22 17.199996948242188)"><path d="M-0.04 0.37 C7.35 6.3, 37.32 29.91, 44.59 35.52 M-1.51 -0.48 C5.74 5.15, 36.61 28.05, 43.95 33.98" stroke="#1e1e1e" stroke-width="2" fill="none"></path></g></g><mask></mask><g stroke-linecap="round"><g transform="translate(289.11113794445987 164.86005907409822) rotate(0 -18.79998779296875 15.199996948242188)"><path d="M0.43 -0.11 C-5.77 4.96, -30.75 24.96, -37.19 30.19 M-0.8 -1.22 C-7.13 4.07, -31.5 26.52, -37.92 31.61" stroke="#1e1e1e" stroke-width="2" fill="none"></path></g></g><mask></mask></svg>